<svg xmlns="http://www.w3.org/2000/svg" version="1.1" xmlns:xlink="http://www.w3.org/1999/xlink" xmlns:svgjs="http://svgjs.dev/svgjs" width="1000" height="1000" viewBox="0 0 1000 1000"><rect width="1000" height="1000" fill="#31c48d"></rect><g transform="matrix(0.7,0,0,0.7,150.61875409836063,146.08680161943317)"><svg viewBox="0 0 244 247" data-background-color="#31c48d" preserveAspectRatio="xMidYMid meet" height="1012" width="1000" xmlns="http://www.w3.org/2000/svg" xmlns:xlink="http://www.w3.org/1999/xlink"><g id="tight-bounds" transform="matrix(1,0,0,1,-0.21567999999999188,-0.09999999999999432)"><svg viewBox="0 0 244.43135999999998 247.2" height="247.2" width="244.43135999999998"><g><svg></svg></g><g><svg viewBox="0 0 244.43135999999998 247.2" height="247.2" width="244.43135999999998"><g transform="matrix(1,0,0,1,0,78.2033488372093)"><svg viewBox="0 0 244.43135999999998 90.79330232558138" height="90.79330232558138" width="244.43135999999998"><g><svg viewBox="0 0 244.43135999999998 90.79330232558138" height="90.79330232558138" width="244.43135999999998"><g><svg viewBox="0 0 244.43135999999998 90.79330232558138" height="90.79330232558138" width="244.43135999999998"><g><svg viewBox="0 0 244.43135999999998 90.79330232558138" height="90.79330232558138" width="244.43135999999998"><g><svg viewBox="0 0 244.43135999999998 90.79330232558138" height="90.79330232558138" width="244.43135999999998"><g><svg viewBox="0 0 244.43135999999998 90.79330232558138" height="90.79330232558138" width="244.43135999999998"><g transform="matrix(1,0,0,1,0,0)"><svg width="244.43135999999998" viewBox="3.5 -28.75 77.4000015258789 28.75" height="90.79330232558138" data-palette-color="#ffffff"><path d="M3.5-14.75L3.5-25.3 9.2-28.75 19.5-28.75 19.5-22.85 9.6-22.85 9.6-17.2 19.5-17.2 19.5-11.35 9.2-11.35 3.5-14.75ZM37.95-3.4L37.95-13.75 32.05-17.2 21.75-17.2 21.75-11.35 31.65-11.35 31.65-5.65 21.95-5.65 21.95 0 32.05 0 37.95-3.4ZM3.5-9.1L9.8-9.1 9.8-5.65 19.5-5.65 19.5 0 9.35 0 3.5-3.4 3.5-9.1ZM31.65-19.45L37.95-19.45 37.95-25.3 32.05-28.75 21.75-28.75 21.75-22.85 31.65-22.85 31.65-19.45ZM46.45 0L46.45-28.75 62.45-28.75 62.45-23.1 52.75-23.1 52.75-17.2 62.45-17.2 62.45-11.5 52.75-11.5 52.75-5.85 62.45-5.85 62.45 0 46.45 0ZM75.25 0L80.9-3.4 80.9-12.15 76.2-14.35 80.9-16.6 80.9-25.3 75.25-28.75 64.9-28.75 64.9-23.1 74.6-23.1 74.6-17.2 64.9-17.2 64.9-11.5 74.6-11.5 74.6-5.85 64.9-5.85 64.9 0 75.25 0Z" opacity="1" transform="matrix(1,0,0,1,0,0)" fill="#ffffff" class="undefined-text-0" data-fill-palette-color="primary" id="text-0"></path></svg></g></svg></g></svg></g></svg></g><g></g></svg></g></svg></g></svg></g><path d="M0 72.203L0 1 244.431 1 244.431 72.203 236.244 72.203 236.244 9.188 8.188 9.188 8.188 72.203 0 72.203M0 174.997L0 246.2 244.431 246.2 244.431 174.997 236.244 174.997 236.244 238.012 8.188 238.012 8.188 174.997 0 174.997" fill="#ffffff" stroke="transparent" data-fill-palette-color="primary"></path></svg></g><defs></defs></svg><rect width="244.43135999999998" height="247.2" fill="none" stroke="none" visibility="hidden"></rect></g></svg></g></svg>